<?xml version="1.0" standalone="no"?>
<!DOCTYPE svg PUBLIC "-//W3C//DTD SVG 20010904//EN"
 "http://www.w3.org/TR/2001/REC-SVG-20010904/DTD/svg10.dtd">
<svg version="1.0" xmlns="http://www.w3.org/2000/svg"
 width="653.000000pt" height="162.000000pt" viewBox="0 0 653.000000 162.000000"
 preserveAspectRatio="xMidYMid meet">

<g transform="translate(0.000000,162.000000) scale(0.100000,-0.100000)"
fill="#000000" stroke="none">
<path d="M1392 1410 c-150 -40 -263 -130 -325 -262 -45 -95 -60 -163 -60 -268
2 -302 197 -515 490 -537 199 -14 375 65 476 215 65 95 90 174 95 302 7 179
-37 299 -153 416 -136 137 -326 185 -523 134z m250 -81 c222 -47 366 -275 329
-520 -38 -245 -228 -395 -477 -376 -139 10 -272 95 -337 215 -73 135 -74 339
0 473 51 95 166 184 271 208 53 13 153 13 214 0z"/>
<path d="M150 884 l0 -516 223 4 c200 4 228 6 278 26 112 44 172 134 173 257
2 130 -76 234 -188 252 l-39 6 61 28 c45 20 68 38 89 70 25 39 28 51 28 128 0
68 -5 94 -22 126 -58 110 -137 135 -425 135 l-178 0 0 -516z m406 415 c114
-29 165 -156 104 -256 -10 -17 -40 -41 -67 -54 -43 -21 -64 -24 -195 -27
l-148 -4 0 176 0 176 131 0 c71 0 150 -5 175 -11z m54 -453 c107 -56 149 -167
101 -272 -40 -87 -115 -114 -318 -114 l-143 0 0 206 0 206 163 -4 c133 -3 168
-7 197 -22z"/>
<path d="M2270 885 l0 -515 50 0 50 0 2 450 3 450 197 -448 c177 -404 199
-447 219 -447 21 0 42 43 219 449 l195 450 3 -452 2 -452 50 0 50 0 0 515 0
516 -71 -3 -72 -3 -186 -427 c-102 -235 -189 -424 -192 -420 -3 4 -89 197
-190 430 l-183 422 -73 0 -73 0 0 -515z"/>
<path d="M3455 1378 c4 -13 70 -243 149 -513 l143 -490 60 -3 59 -3 129 456
c71 250 131 455 134 455 3 0 64 -205 135 -455 l128 -455 58 0 c57 0 59 1 69
33 5 17 72 243 147 502 75 259 139 476 141 483 4 8 -9 12 -45 12 l-49 0 -113
-397 c-61 -219 -118 -422 -127 -451 -8 -30 -18 -50 -22 -45 -5 4 -56 177 -115
383 -59 206 -116 406 -127 443 l-20 68 -61 -3 -61 -3 -119 -415 c-65 -228
-123 -433 -129 -455 -8 -27 -13 -35 -18 -25 -4 8 -63 214 -131 458 l-124 442
-48 0 c-45 0 -48 -1 -43 -22z"/>
<path d="M5230 1358 c-184 -419 -423 -966 -427 -975 -4 -9 9 -13 45 -13 l49 0
59 135 59 135 275 -2 275 -3 55 -133 54 -132 54 0 c39 0 53 3 49 13 -3 6 -98
233 -212 502 -114 270 -210 496 -212 503 -3 7 -24 12 -55 12 -48 0 -49 -1 -68
-42z m181 -343 c61 -149 113 -273 116 -277 2 -5 -104 -8 -235 -8 l-240 0 110
258 c60 141 114 268 119 281 5 13 11 22 14 19 2 -2 54 -125 116 -273z"/>
<path d="M5861 1108 l189 -293 0 -222 0 -223 50 0 50 0 0 224 0 224 185 286
c102 157 185 288 185 291 0 3 -23 5 -50 5 l-51 0 -157 -240 c-86 -132 -160
-240 -163 -240 -3 0 -75 108 -159 240 l-153 240 -58 0 -58 0 190 -292z"/>
</g>
</svg>
